<mxfile host="app.diagrams.net" agent="Mozilla/5.0 (Windows NT 10.0; Win64; x64) AppleWebKit/537.36 (KHTML, like Gecko) Chrome/139.0.0.0 Safari/537.36" version="28.1.1">
  <diagram name="Page-1" id="fhAEM8cXnAbMNhaPRK29">
    <mxGraphModel dx="1042" dy="562" grid="1" gridSize="10" guides="1" tooltips="1" connect="1" arrows="1" fold="1" page="1" pageScale="1" pageWidth="827" pageHeight="1169" math="0" shadow="0">
      <root>
        <mxCell id="0" />
        <mxCell id="1" parent="0" />
        <mxCell id="UY2WrnhiO8tJkzuko6Wp-5" value="" style="edgeStyle=orthogonalEdgeStyle;rounded=0;orthogonalLoop=1;jettySize=auto;html=1;" edge="1" parent="1" source="UY2WrnhiO8tJkzuko6Wp-1" target="UY2WrnhiO8tJkzuko6Wp-4">
          <mxGeometry relative="1" as="geometry" />
        </mxCell>
        <mxCell id="UY2WrnhiO8tJkzuko6Wp-1" value="&lt;font style=&quot;font-size: 20px; color: light-dark(rgb(0, 0, 0), rgb(255, 255, 255));&quot;&gt;PLAN&lt;/font&gt;" style="ellipse;whiteSpace=wrap;html=1;fillColor=#1ba1e2;fontColor=#ffffff;strokeColor=#006EAF;" vertex="1" parent="1">
          <mxGeometry x="310" y="40" width="160" height="80" as="geometry" />
        </mxCell>
        <mxCell id="UY2WrnhiO8tJkzuko6Wp-7" value="" style="edgeStyle=orthogonalEdgeStyle;rounded=0;orthogonalLoop=1;jettySize=auto;html=1;" edge="1" parent="1" source="UY2WrnhiO8tJkzuko6Wp-4" target="UY2WrnhiO8tJkzuko6Wp-6">
          <mxGeometry relative="1" as="geometry" />
        </mxCell>
        <mxCell id="UY2WrnhiO8tJkzuko6Wp-4" value="&lt;font style=&quot;font-size: 20px;&quot;&gt;DEVELOP&lt;/font&gt;" style="ellipse;whiteSpace=wrap;html=1;fillColor=#6a00ff;fontColor=#ffffff;strokeColor=#3700CC;" vertex="1" parent="1">
          <mxGeometry x="310" y="200" width="160" height="80" as="geometry" />
        </mxCell>
        <mxCell id="UY2WrnhiO8tJkzuko6Wp-9" value="" style="edgeStyle=orthogonalEdgeStyle;rounded=0;orthogonalLoop=1;jettySize=auto;html=1;" edge="1" parent="1" source="UY2WrnhiO8tJkzuko6Wp-6" target="UY2WrnhiO8tJkzuko6Wp-8">
          <mxGeometry relative="1" as="geometry" />
        </mxCell>
        <mxCell id="UY2WrnhiO8tJkzuko6Wp-6" value="&lt;font style=&quot;font-size: 20px; color: light-dark(rgb(0, 0, 0), rgb(255, 255, 255));&quot;&gt;BUILD&lt;/font&gt;" style="ellipse;whiteSpace=wrap;html=1;fillColor=#008a00;fontColor=#ffffff;strokeColor=#005700;" vertex="1" parent="1">
          <mxGeometry x="310" y="360" width="160" height="80" as="geometry" />
        </mxCell>
        <mxCell id="UY2WrnhiO8tJkzuko6Wp-11" value="" style="edgeStyle=orthogonalEdgeStyle;rounded=0;orthogonalLoop=1;jettySize=auto;html=1;" edge="1" parent="1" source="UY2WrnhiO8tJkzuko6Wp-8" target="UY2WrnhiO8tJkzuko6Wp-10">
          <mxGeometry relative="1" as="geometry" />
        </mxCell>
        <mxCell id="UY2WrnhiO8tJkzuko6Wp-8" value="&lt;font style=&quot;font-size: 20px;&quot;&gt;TEST&lt;/font&gt;" style="ellipse;whiteSpace=wrap;html=1;fillColor=#f0a30a;fontColor=#000000;strokeColor=#BD7000;" vertex="1" parent="1">
          <mxGeometry x="310" y="520" width="160" height="80" as="geometry" />
        </mxCell>
        <mxCell id="UY2WrnhiO8tJkzuko6Wp-13" value="" style="edgeStyle=orthogonalEdgeStyle;rounded=0;orthogonalLoop=1;jettySize=auto;html=1;" edge="1" parent="1" source="UY2WrnhiO8tJkzuko6Wp-10" target="UY2WrnhiO8tJkzuko6Wp-12">
          <mxGeometry relative="1" as="geometry" />
        </mxCell>
        <mxCell id="UY2WrnhiO8tJkzuko6Wp-10" value="&lt;font style=&quot;font-size: 20px;&quot;&gt;RELEASE&lt;/font&gt;" style="ellipse;whiteSpace=wrap;html=1;fillColor=#647687;fontColor=#ffffff;strokeColor=#314354;" vertex="1" parent="1">
          <mxGeometry x="310" y="680" width="160" height="80" as="geometry" />
        </mxCell>
        <mxCell id="UY2WrnhiO8tJkzuko6Wp-15" value="" style="edgeStyle=orthogonalEdgeStyle;rounded=0;orthogonalLoop=1;jettySize=auto;html=1;" edge="1" parent="1" source="UY2WrnhiO8tJkzuko6Wp-12" target="UY2WrnhiO8tJkzuko6Wp-14">
          <mxGeometry relative="1" as="geometry" />
        </mxCell>
        <mxCell id="UY2WrnhiO8tJkzuko6Wp-12" value="&lt;font style=&quot;font-size: 20px;&quot;&gt;DEPLOY&lt;/font&gt;" style="ellipse;whiteSpace=wrap;html=1;fillColor=#fa6800;fontColor=#000000;strokeColor=#C73500;" vertex="1" parent="1">
          <mxGeometry x="310" y="840" width="160" height="80" as="geometry" />
        </mxCell>
        <mxCell id="UY2WrnhiO8tJkzuko6Wp-17" value="" style="edgeStyle=orthogonalEdgeStyle;rounded=0;orthogonalLoop=1;jettySize=auto;html=1;" edge="1" parent="1" source="UY2WrnhiO8tJkzuko6Wp-14" target="UY2WrnhiO8tJkzuko6Wp-16">
          <mxGeometry relative="1" as="geometry" />
        </mxCell>
        <mxCell id="UY2WrnhiO8tJkzuko6Wp-14" value="&lt;font style=&quot;font-size: 20px;&quot;&gt;OPERATE&lt;/font&gt;" style="ellipse;whiteSpace=wrap;html=1;fillColor=#d0cee2;strokeColor=#56517e;" vertex="1" parent="1">
          <mxGeometry x="310" y="1000" width="160" height="80" as="geometry" />
        </mxCell>
        <mxCell id="UY2WrnhiO8tJkzuko6Wp-16" value="&lt;font style=&quot;font-size: 20px;&quot;&gt;MONITOR&lt;/font&gt;" style="ellipse;whiteSpace=wrap;html=1;fillColor=#dae8fc;strokeColor=#6c8ebf;gradientColor=#7ea6e0;" vertex="1" parent="1">
          <mxGeometry x="310" y="1160" width="160" height="80" as="geometry" />
        </mxCell>
      </root>
    </mxGraphModel>
  </diagram>
</mxfile>
